<svg width="199" height="59" viewBox="0 0 199 59" fill="none" xmlns="http://www.w3.org/2000/svg">
<path d="M92.558 35.065H77.6488C77.9779 40.8575 80.2324 43.7537 84.4122 43.7537C85.5312 43.7537 86.7984 43.4904 88.2136 42.9638C89.6617 42.4373 90.7149 41.6967 91.3731 40.7423L92.0643 41.236C91.3402 42.4537 90.106 43.4575 88.3617 44.2474C86.6173 45.0373 84.873 45.4322 83.1287 45.4322C81.4172 45.4322 79.8704 45.2677 78.4881 44.9386C77.1058 44.5765 75.7564 43.9841 74.4399 43.1613C73.1234 42.3385 72.0867 41.1043 71.3297 39.4587C70.6056 37.8131 70.2436 35.8219 70.2436 33.4852C70.2436 29.5028 71.3462 26.5572 73.5513 24.6483C75.7564 22.7065 78.4222 21.7356 81.5489 21.7356C84.7084 21.7356 87.3249 22.7888 89.3984 24.8952C91.5048 27.0015 92.558 30.3915 92.558 35.065ZM77.5994 34.0776H85.6464C85.6464 31.0497 85.3173 28.4003 84.6591 26.1294C84.0337 23.8584 83.0135 22.723 81.5983 22.723C80.183 22.723 79.1628 23.8255 78.5374 26.0306C77.9121 28.2028 77.5994 30.7041 77.5994 33.5346V34.0776ZM120.088 43.9512C119.759 44.2803 119.134 44.5765 118.212 44.8398C117.29 45.0702 116.221 45.1854 115.003 45.1854C112.304 45.1854 110.609 44.3791 109.918 42.7664C108.273 44.4778 105.755 45.3335 102.365 45.3335C100.555 45.3335 99.0572 44.9221 97.8723 44.0993C96.7204 43.2436 96.1445 41.9929 96.1445 40.3473C96.1445 38.1422 97.0002 36.4473 98.7116 35.2624C100.423 34.0447 103.418 33.189 107.697 32.6953L109.671 32.4485V30.0294C109.671 27.1661 109.457 25.2407 109.03 24.2534C108.602 23.266 107.746 22.7723 106.462 22.7723C105.212 22.7723 104.405 22.9533 104.043 23.3154C103.681 23.6445 103.55 24.0394 103.648 24.5002C103.747 24.9281 103.912 25.504 104.142 26.2281C104.372 26.9522 104.488 27.5281 104.488 27.956C104.488 28.9762 104.126 29.8484 103.402 30.5725C102.71 31.2636 101.855 31.6092 100.834 31.6092C99.8471 31.6092 98.9914 31.2636 98.2673 30.5725C97.5432 29.8484 97.1812 28.9762 97.1812 27.956C97.1812 26.2775 98.0369 24.8458 99.7483 23.661C101.493 22.4432 104.076 21.8343 107.499 21.8343C110.955 21.8343 113.407 22.509 114.855 23.8584C116.336 25.2078 117.077 27.5939 117.077 31.0168V39.903C117.077 41.6474 117.29 42.7499 117.718 43.2107C118.146 43.6385 118.936 43.7208 120.088 43.4575V43.9512ZM103.007 39.36C103.171 40.6106 103.632 41.5815 104.389 42.2727C105.146 42.9309 106.018 43.2601 107.005 43.2601C108.026 43.2601 108.914 42.7664 109.671 41.779V33.3865L107.894 33.6333C106.38 33.8308 105.146 34.4067 104.191 35.3612C103.27 36.3156 102.875 37.6486 103.007 39.36ZM132.13 23.2166V35.2624C132.13 38.0929 132.245 39.8207 132.475 40.4461C132.706 41.0385 132.953 41.5486 133.216 41.9765C133.71 42.8322 134.565 43.2601 135.783 43.2601C137.034 43.2601 137.906 43.0955 138.4 42.7664V43.7537C136.82 44.8727 135.092 45.4322 133.216 45.4322C130.451 45.4322 128.345 44.774 126.897 43.4575C125.449 42.141 124.725 39.7878 124.725 36.3979V23.2166H121.071V22.2293H124.725C126.304 21.966 127.703 21.209 128.921 19.9583C130.139 18.6748 130.978 16.914 131.439 14.676H132.13V22.2293H137.857V23.2166H132.13ZM153.226 44.9386H140.884V43.9512H143.353V18.2798H140.884V17.2925H153.226V18.2798H150.758V43.9512H153.226V44.9386ZM166.263 23.2166V35.2624C166.263 38.0929 166.378 39.8207 166.609 40.4461C166.839 41.0385 167.086 41.5486 167.349 41.9765C167.843 42.8322 168.699 43.2601 169.916 43.2601C171.167 43.2601 172.039 43.0955 172.533 42.7664V43.7537C170.953 44.8727 169.225 45.4322 167.349 45.4322C164.585 45.4322 162.478 44.774 161.03 43.4575C159.582 42.141 158.858 39.7878 158.858 36.3979V23.2166H155.205V22.2293H158.858C160.438 21.966 161.837 21.209 163.054 19.9583C164.272 18.6748 165.111 16.914 165.572 14.676H166.263V22.2293H171.99V23.2166H166.263Z" fill="#32322B"/>
<rect width="58.7714" height="58.7714" fill="#32322B"/>
<path d="M32.3713 46.9115C38.9537 46.9115 42.2449 43.1815 42.2449 35.7214H43.5614V48.228H12.6241V46.9115H15.9153V12.683H12.6241V11.3665H42.9032V22.5566H41.5867C41.5867 18.6511 40.7968 16.04 39.217 14.7236C37.6811 13.3632 35.1798 12.683 31.7131 12.683H25.7889V28.4808H28.4219C31.5814 28.4808 33.5781 28.0858 34.4119 27.296C35.2456 26.5061 35.6625 24.9263 35.6625 22.5566H36.979V35.7214H35.6625C35.6625 33.264 35.2456 31.6623 34.4119 30.9163C33.5781 30.1703 31.5814 29.7973 28.4219 29.7973H25.7889V46.9115H32.3713Z" fill="#F3E8DF"/>
</svg>
