<svg width="447" height="202" viewBox="0 0 447 202" fill="none" xmlns="http://www.w3.org/2000/svg">
<path d="M21.6 152H36.9V153.8C31.56 153.8 27.99 154.88 26.19 157.04C24.33 159.14 23.4 162.56 23.4 167.3L23.4 175.4H46.98V171.8C46.98 167.48 46.44 164.75 45.36 163.61C44.28 162.47 42.12 161.9 38.88 161.9V160.1H56.88V161.9C53.52 161.9 51.33 162.47 50.31 163.61C49.29 164.75 48.78 167.48 48.78 171.8V175.4H70.2V170H72V193.4H70.2V188.9H23.4V193.4H21.6L21.6 152ZM70.2 127.675V123.175H72V145.675H70.2V141.175H32.4V144.775H30.6V127.675H70.2ZM18.72 126.865C20.88 126.865 22.74 127.645 24.3 129.205C25.8 130.705 26.55 132.565 26.55 134.785C26.55 136.945 25.8 138.805 24.3 140.365C22.74 141.925 20.88 142.705 18.72 142.705C16.5 142.705 14.61 141.925 13.05 140.365C11.49 138.805 10.71 136.945 10.71 134.785C10.71 132.565 11.49 130.705 13.05 129.205C14.61 127.645 16.5 126.865 18.72 126.865ZM70.2 69.5973V65.0973H72L72 87.5973H70.2V83.0973H45C40.74 83.0973 37.71 83.7273 35.91 84.9873C34.11 86.2473 33.21 88.1373 33.21 90.6573C33.21 94.0773 35.01 96.8073 38.61 98.8473H70.2V94.3473H72V116.847H70.2V112.347H32.4V116.847H30.6L30.6 98.8473H35.28C33.72 97.7073 32.4 95.9373 31.32 93.5373C30.18 91.0773 29.61 88.4373 29.61 85.6173C29.61 74.9373 35.4 69.5973 46.98 69.5973H70.2ZM73.08 41.8295C73.08 46.6895 71.16 50.8895 67.32 54.4295C63.48 57.9695 58.05 59.7395 51.03 59.7395C44.01 59.7395 38.52 57.9995 34.56 54.5195C30.6 51.0395 28.62 46.8095 28.62 41.8295C28.62 39.3695 29.13 37.0595 30.15 34.8995C31.17 32.7395 32.7 31.1795 34.74 30.2195H13.5V34.7195H11.7V16.7195H70.2V12.2195H72V30.2195H67.86C71.34 31.8395 73.08 35.7095 73.08 41.8295ZM52.29 30.2195H37.44C34.2 31.8395 32.58 33.9695 32.58 36.6095C32.58 39.1895 34.08 41.4095 37.08 43.2695C40.08 45.1295 44.85 46.0595 51.39 46.0595C57.87 46.0595 62.61 45.0995 65.61 43.1795C68.61 41.2595 69.9 38.9495 69.48 36.2495C69.24 34.7495 68.76 33.6095 68.04 32.8295C66.36 31.0895 61.11 30.2195 52.29 30.2195Z" fill="#32322B"/>
<path d="M148.514 73H126.894V71.12H130.654V51.286L113.828 22.24H108.94V20.36H135.26V22.24H130.654L143.814 45.928L156.034 22.24H148.514V20.36H164.964V22.24H158.384L144.754 48.748V71.12H148.514V73ZM207.378 46.586C207.378 38.5647 206.281 32.3293 204.088 27.88C201.957 23.368 198.98 21.112 195.158 21.112C191.398 21.112 188.421 23.368 186.228 27.88C184.034 32.392 182.938 38.69 182.938 46.774C182.938 54.858 183.972 61.0933 186.04 65.48C188.17 69.8667 191.21 72.06 195.158 72.06C203.304 72.06 207.378 63.5687 207.378 46.586ZM222.512 47.15C222.512 55.7353 219.974 62.3467 214.898 66.984C209.822 71.6213 203.21 73.94 195.064 73.94C186.917 73.94 180.337 71.6527 175.324 67.078C170.31 62.4407 167.804 55.8293 167.804 47.244C167.804 38.596 170.31 31.7653 175.324 26.752C180.337 21.7387 186.98 19.232 195.252 19.232C203.586 19.232 210.198 21.7387 215.086 26.752C220.036 31.7027 222.512 38.502 222.512 47.15ZM275.628 50.064C275.628 66.2947 268.798 74.41 255.136 74.41C247.554 74.41 241.632 72.4673 237.37 68.582C233.109 64.6967 230.978 58.8373 230.978 51.004V22.24H226.278V20.36H250.718V22.24H246.018V52.038C246.018 65.1353 250.405 71.684 259.178 71.684C262.75 71.684 265.978 69.9293 268.86 66.42C271.806 62.848 273.278 58.0227 273.278 51.944V22.24H265.852V20.36H280.328V22.24H275.628V50.064ZM302.933 22.24V46.492C309.199 46.492 313.398 45.5833 315.529 43.766C317.659 41.9487 318.725 38.9093 318.725 34.648C318.725 30.3867 317.628 27.2533 315.435 25.248C313.241 23.2427 309.074 22.24 302.933 22.24ZM339.875 73.94H335.739C327.905 73.94 322.453 72.248 319.383 68.864C316.939 66.232 315.278 62.754 314.401 58.43C314.025 56.6127 313.617 54.952 313.179 53.448C312.176 50.064 310.139 48.372 307.069 48.372H302.933V71.12H307.633V73H284.133V71.12H288.833V22.24H284.133V20.36H308.855C324.835 20.36 332.825 25.0287 332.825 34.366C332.825 38.0633 331.477 41.0713 328.782 43.39C326.088 45.7087 322.641 46.868 318.443 46.868V47.526C324.709 47.526 329.065 51.662 331.509 59.934C332.762 64.3207 334.015 67.454 335.269 69.334C336.585 71.1513 338.12 72.06 339.875 72.06V73.94Z" fill="#32322B"/>
<path d="M125.64 177.004H96.64V174.684H102.44V125.964H96.64V123.644H119.84V137.448C120.536 133.658 121.773 130.565 123.552 128.168C125.408 125.77 127.419 124.185 129.584 123.412C131.827 122.638 133.953 122.252 135.964 122.252C138.052 122.252 140.024 122.638 141.88 123.412C143.813 124.108 145.244 125.577 146.172 127.82C147.1 129.985 147.139 132.189 146.288 134.432C145.437 136.597 143.929 138.144 141.764 139.072C139.676 140 137.743 140.116 135.964 139.42C134.185 138.724 132.909 137.796 132.136 136.636C131.363 135.398 130.821 134.238 130.512 133.156C129.739 130.294 128.695 128.864 127.38 128.864C125.911 128.864 124.287 131.416 122.508 136.52C120.729 141.546 119.84 146.882 119.84 152.528V174.684H125.64V177.004ZM203.986 153.804H168.954C169.728 167.414 175.025 174.22 184.846 174.22C187.476 174.22 190.453 173.601 193.778 172.364C197.181 171.126 199.656 169.386 201.202 167.144L202.826 168.304C201.125 171.165 198.225 173.524 194.126 175.38C190.028 177.236 185.929 178.164 181.83 178.164C177.809 178.164 174.174 177.777 170.926 177.004C167.678 176.153 164.508 174.761 161.414 172.828C158.321 170.894 155.885 167.994 154.106 164.128C152.405 160.261 151.554 155.582 151.554 150.092C151.554 140.734 154.145 133.813 159.326 129.328C164.508 124.765 170.772 122.484 178.118 122.484C185.542 122.484 191.69 124.958 196.562 129.908C201.512 134.857 203.986 142.822 203.986 153.804ZM168.838 151.484H187.746C187.746 144.369 186.973 138.144 185.426 132.808C183.957 127.472 181.56 124.804 178.234 124.804C174.909 124.804 172.512 127.394 171.042 132.576C169.573 137.68 168.838 143.557 168.838 150.208V151.484ZM211.253 150.324C211.253 141.198 213.921 134.277 219.257 129.56C224.593 124.842 231.36 122.484 239.557 122.484C247.832 122.484 253.98 124.572 258.001 128.748C262.023 132.846 263.453 137.1 262.293 141.508C261.675 143.905 260.36 145.684 258.349 146.844C256.416 147.926 254.289 148.197 251.969 147.656C247.097 146.496 244.661 143.673 244.661 139.188C244.661 138.028 244.777 136.288 245.009 133.968C245.319 131.57 245.435 129.83 245.357 128.748C245.28 127.665 245.048 126.814 244.661 126.196C243.888 124.881 242.071 124.378 239.209 124.688C232.249 125.77 228.769 134.316 228.769 150.324C228.769 166.254 234.453 174.22 245.821 174.22C248.451 174.22 251.119 173.524 253.825 172.132C256.532 170.74 258.543 169.077 259.857 167.144L261.481 168.304C259.703 171.242 257.035 173.601 253.477 175.38C249.92 177.158 245.937 178.048 241.529 178.048C221.345 178.048 211.253 168.806 211.253 150.324ZM293.953 174.684H299.753V177.004H270.753V174.684H276.553V125.964H271.913V123.644H293.953V174.684ZM294.997 108.332C294.997 111.116 293.992 113.513 291.981 115.524C290.048 117.457 287.651 118.424 284.789 118.424C282.005 118.424 279.608 117.457 277.597 115.524C275.587 113.513 274.581 111.116 274.581 108.332C274.581 105.47 275.587 103.034 277.597 101.024C279.608 99.013 282.005 98.0076 284.789 98.0076C287.651 98.0076 290.048 99.013 291.981 101.024C293.992 103.034 294.997 105.47 294.997 108.332ZM328.79 149.048V168.188C330.878 172.364 333.584 174.452 336.91 174.452C340.312 174.452 343.212 172.518 345.61 168.652C348.007 164.785 349.206 158.598 349.206 150.092C349.206 141.508 348.278 135.514 346.422 132.112C344.566 128.632 341.743 126.892 337.954 126.892C334.164 126.892 331.69 128.438 330.53 131.532C329.37 134.625 328.79 140.464 328.79 149.048ZM328.79 128.98C331.419 124.494 336.136 122.252 342.942 122.252C349.747 122.252 355.431 124.726 359.994 129.676C364.556 134.625 366.838 141.624 366.838 150.672C366.838 159.72 364.595 166.796 360.11 171.9C355.624 177.004 350.172 179.556 343.754 179.556C340.583 179.556 337.606 178.898 334.822 177.584C332.038 176.269 330.027 174.297 328.79 171.668V199.044H334.59V201.364H311.39V125.964H305.59V123.644H328.79V128.98ZM426.244 153.804H391.212C391.985 167.414 397.283 174.22 407.104 174.22C409.733 174.22 412.711 173.601 416.036 172.364C419.439 171.126 421.913 169.386 423.46 167.144L425.084 168.304C423.383 171.165 420.483 173.524 416.384 175.38C412.285 177.236 408.187 178.164 404.088 178.164C400.067 178.164 396.432 177.777 393.184 177.004C389.936 176.153 386.765 174.761 383.672 172.828C380.579 170.894 378.143 167.994 376.364 164.128C374.663 160.261 373.812 155.582 373.812 150.092C373.812 140.734 376.403 133.813 381.584 129.328C386.765 124.765 393.029 122.484 400.376 122.484C407.8 122.484 413.948 124.958 418.82 129.908C423.769 134.857 426.244 142.822 426.244 153.804ZM391.096 151.484H410.004C410.004 144.369 409.231 138.144 407.684 132.808C406.215 127.472 403.817 124.804 400.492 124.804C397.167 124.804 394.769 127.394 393.3 132.576C391.831 137.68 391.096 143.557 391.096 150.208V151.484Z" fill="#32322B"/>
</svg>
